<svg xmlns="http://www.w3.org/2000/svg" version="1.1" xmlns:xlink="http://www.w3.org/1999/xlink" xmlns:svgjs="http://svgjs.dev/svgjs" width="2000" height="446" viewBox="0 0 2000 446"><g transform="matrix(1,0,0,1,-18.169419400232528,-6.973527920437419)"><svg viewBox="0 0 399 89" data-background-color="#0b022d" preserveAspectRatio="xMidYMid meet" height="446" width="2000" xmlns="http://www.w3.org/2000/svg" xmlns:xlink="http://www.w3.org/1999/xlink"><defs></defs><g id="tight-bounds" transform="matrix(1,0,0,1,3.6247991703463924,3.753340077575956)"><svg viewBox="0 0 395.5199999999999 81.4933198448481" height="81.4933198448481" width="395.5199999999999"><g><svg viewBox="0 0 532.3570293455123 109.6873525083612" height="81.4933198448481" width="395.5199999999999"><g transform="matrix(1,0,0,1,136.8370293455123,28.387488963210707)"><svg viewBox="0 0 395.5199999999999 52.91237458193979" height="52.91237458193979" width="395.5199999999999"><g><svg viewBox="0 0 395.5199999999999 52.91237458193979" height="52.91237458193979" width="395.5199999999999"><g><svg viewBox="0 0 395.5199999999999 52.91237458193979" height="52.91237458193979" width="395.5199999999999"><g transform="matrix(1,0,0,1,0,0)"><svg width="395.5199999999999" viewBox="2.4000000953674316 -35.5 269.08001708984375 36" height="52.91237458193979" data-palette-color="#f7fff7"><path d="M30.25-32.4L30.25-32.4Q30.85-32 30.95-31.38 31.05-30.75 30.65-30.15L30.65-30.15Q30.3-29.7 29.75-29.65 29.2-29.6 28.7-29.85L28.7-29.85Q26.8-31.1 24.63-31.8 22.45-32.5 19.95-32.5L19.95-32.5Q16.9-32.5 14.28-31.43 11.65-30.35 9.7-28.33 7.75-26.3 6.68-23.55 5.6-20.8 5.6-17.5L5.6-17.5Q5.6-14.1 6.7-11.33 7.8-8.55 9.78-6.55 11.75-4.55 14.35-3.5 16.95-2.45 19.95-2.45L19.95-2.45Q22.4-2.45 24.58-3.15 26.75-3.85 28.65-5.05L28.65-5.05Q29.15-5.35 29.73-5.28 30.3-5.2 30.65-4.7L30.65-4.7Q31.1-4.15 30.98-3.53 30.85-2.9 30.3-2.55L30.3-2.55Q29.05-1.75 27.35-1.05 25.65-0.35 23.75 0.08 21.85 0.5 19.95 0.5L19.95 0.5Q16.35 0.5 13.2-0.8 10.05-2.1 7.6-4.48 5.15-6.85 3.78-10.15 2.4-13.45 2.4-17.5L2.4-17.5Q2.4-21.4 3.75-24.68 5.1-27.95 7.5-30.35 9.9-32.75 13.1-34.1 16.3-35.45 19.95-35.45L19.95-35.45Q22.8-35.45 25.45-34.65 28.1-33.85 30.25-32.4ZM68.55-17.5L68.55-17.5Q68.55-13.55 67.32-10.28 66.1-7 63.85-4.58 61.6-2.15 58.52-0.83 55.45 0.5 51.8 0.5L51.8 0.5Q48.15 0.5 45.07-0.83 42-2.15 39.75-4.58 37.5-7 36.27-10.28 35.05-13.55 35.05-17.5L35.05-17.5Q35.05-21.45 36.27-24.73 37.5-28 39.75-30.43 42-32.85 45.07-34.18 48.15-35.5 51.8-35.5L51.8-35.5Q55.45-35.5 58.52-34.18 61.6-32.85 63.85-30.43 66.1-28 67.32-24.73 68.55-21.45 68.55-17.5ZM65.35-17.5L65.35-17.5Q65.35-21.95 63.62-25.33 61.9-28.7 58.85-30.6 55.8-32.5 51.8-32.5L51.8-32.5Q47.85-32.5 44.77-30.6 41.7-28.7 39.97-25.33 38.25-21.95 38.25-17.5L38.25-17.5Q38.25-13.05 39.97-9.68 41.7-6.3 44.77-4.4 47.85-2.5 51.8-2.5L51.8-2.5Q55.8-2.5 58.85-4.4 61.9-6.3 63.62-9.68 65.35-13.05 65.35-17.5ZM75.8-20.85L75.45-20.85Q74.6-20.85 74.15-21.38 73.7-21.9 73.7-22.75L73.7-22.75 73.7-23.8Q73.7-24.7 74.15-25.23 74.6-25.75 75.45-25.75L75.45-25.75 75.8-25.75Q76.65-25.75 77.1-25.23 77.55-24.7 77.55-23.8L77.55-23.8 77.55-22.75Q77.55-21.9 77.1-21.38 76.65-20.85 75.8-20.85L75.8-20.85ZM75.8 0L75.45 0Q74.6 0 74.15-0.53 73.7-1.05 73.7-1.9L73.7-1.9 73.7-3Q73.7-3.9 74.15-4.4 74.6-4.9 75.45-4.9L75.45-4.9 75.8-4.9Q76.65-4.9 77.1-4.4 77.55-3.9 77.55-3L77.55-3 77.55-1.9Q77.55-1.05 77.1-0.53 76.65 0 75.8 0L75.8 0ZM86.59-35L86.59-35Q87.19-35 87.67-34.55 88.14-34.1 88.14-33.45L88.14-33.45 88.14-1.55Q88.09-0.9 87.62-0.45 87.14 0 86.54 0L86.54 0Q85.84 0 85.42-0.45 84.99-0.9 84.99-1.55L84.99-1.55 84.99-33.45Q84.99-34.1 85.44-34.55 85.89-35 86.59-35ZM110.04-35L110.04-35Q110.74-35 111.17-34.55 111.59-34.1 111.59-33.45L111.59-33.45 111.59-1.55Q111.54-0.9 111.12-0.45 110.69 0 109.99 0L109.99 0Q109.34 0 108.89-0.45 108.44-0.9 108.44-1.55L108.44-1.55 108.44-33.45Q108.44-34.1 108.92-34.55 109.39-35 110.04-35ZM86.14-16.45L86.34-19.35 110.09-19.35 110.04-16.45 86.14-16.45ZM122.49-35L122.49-35 140.84-35Q141.44-35 141.89-34.58 142.34-34.15 142.34-33.5L142.34-33.5Q142.34-32.85 141.89-32.45 141.44-32.05 140.84-32.05L140.84-32.05 123.64-32.05 124.14-32.9 124.14-18.85 123.59-19.5 138.59-19.5Q139.19-19.5 139.64-19.05 140.09-18.6 140.09-18L140.09-18Q140.09-17.35 139.64-16.95 139.19-16.55 138.59-16.55L138.59-16.55 123.69-16.55 124.14-17.05 124.14-2.65 123.89-2.95 140.84-2.95Q141.44-2.95 141.89-2.5 142.34-2.05 142.34-1.45L142.34-1.45Q142.34-0.8 141.89-0.4 141.44 0 140.84 0L140.84 0 122.49 0Q121.89 0 121.44-0.45 120.99-0.9 120.99-1.5L120.99-1.5 120.99-33.5Q120.99-34.1 121.44-34.55 121.89-35 122.49-35ZM151.09 0L151.09 0Q150.34 0 149.86-0.45 149.39-0.9 149.39-1.5L149.39-1.5 149.39-33.5Q149.39-34.1 149.84-34.55 150.29-35 150.89-35L150.89-35 164.39-35Q167.24-35 169.49-33.77 171.74-32.55 173.01-30.4 174.29-28.25 174.29-25.55L174.29-25.55Q174.29-23.35 173.49-21.5 172.69-19.65 171.24-18.38 169.79-17.1 167.99-16.5L167.99-16.5 166.24-17.05Q168.09-16.9 169.69-15.88 171.29-14.85 172.26-13.08 173.24-11.3 173.29-8.8L173.29-8.8Q173.34-6.65 173.51-5.45 173.69-4.25 174.04-3.65 174.39-3.05 174.94-2.7L174.94-2.7Q175.44-2.4 175.61-1.85 175.79-1.3 175.49-0.8L175.49-0.8Q175.29-0.4 174.91-0.23 174.54-0.05 174.14-0.05 173.74-0.05 173.34-0.25L173.34-0.25Q172.64-0.65 171.91-1.5 171.19-2.35 170.71-4 170.24-5.65 170.24-8.6L170.24-8.6Q170.24-10.55 169.61-11.8 168.99-13.05 168.01-13.73 167.04-14.4 165.86-14.68 164.69-14.95 163.64-14.95L163.64-14.95 151.99-14.95 152.54-15.65 152.54-1.5Q152.54-0.9 152.14-0.45 151.74 0 151.09 0ZM152.54-17L151.99-17.7 164.54-17.7Q166.24-17.85 167.74-18.82 169.24-19.8 170.16-21.5 171.09-23.2 171.09-25.45L171.09-25.45Q171.09-28.3 169.16-30.18 167.24-32.05 164.14-32.05L164.14-32.05 152.19-32.05 152.54-32.75 152.54-17ZM184.38-35L184.38-35 202.74-35Q203.34-35 203.78-34.58 204.24-34.15 204.24-33.5L204.24-33.5Q204.24-32.85 203.78-32.45 203.34-32.05 202.74-32.05L202.74-32.05 185.53-32.05 186.03-32.9 186.03-18.85 185.49-19.5 200.49-19.5Q201.09-19.5 201.53-19.05 201.99-18.6 201.99-18L201.99-18Q201.99-17.35 201.53-16.95 201.09-16.55 200.49-16.55L200.49-16.55 185.59-16.55 186.03-17.05 186.03-2.65 185.78-2.95 202.74-2.95Q203.34-2.95 203.78-2.5 204.24-2.05 204.24-1.45L204.24-1.45Q204.24-0.8 203.78-0.4 203.34 0 202.74 0L202.74 0 184.38 0Q183.78 0 183.34-0.45 182.88-0.9 182.88-1.5L182.88-1.5 182.88-33.5Q182.88-34.1 183.34-34.55 183.78-35 184.38-35ZM236.88-35L236.88-35Q237.53-35 237.91-34.6 238.28-34.2 238.28-33.6L238.28-33.6 238.28-1.6Q238.28-0.85 237.81-0.43 237.33 0 236.73 0L236.73 0Q236.43 0 236.08-0.13 235.73-0.25 235.53-0.5L235.53-0.5 213.23-30.55 214.08-31 214.08-1.35Q214.08-0.8 213.68-0.4 213.28 0 212.68 0L212.68 0Q212.03 0 211.66-0.4 211.28-0.8 211.28-1.35L211.28-1.35 211.28-33.5Q211.28-34.25 211.73-34.63 212.18-35 212.73-35L212.73-35Q213.03-35 213.38-34.88 213.73-34.75 213.93-34.45L213.93-34.45 235.98-4.75 235.48-3.85 235.48-33.6Q235.48-34.2 235.91-34.6 236.33-35 236.88-35ZM258.08 0L258.08 0Q257.38 0 256.96-0.45 256.53-0.9 256.53-1.5L256.53-1.5 256.53-33.35 259.63-33.35 259.63-1.5Q259.63-0.9 259.18-0.45 258.73 0 258.08 0ZM269.98-32.15L246.18-32.15Q245.58-32.15 245.13-32.55 244.68-32.95 244.68-33.6L244.68-33.6Q244.68-34.2 245.13-34.6 245.58-35 246.18-35L246.18-35 269.98-35Q270.58-35 271.03-34.6 271.48-34.2 271.48-33.55L271.48-33.55Q271.48-32.9 271.03-32.52 270.58-32.15 269.98-32.15L269.98-32.15Z" opacity="1" transform="matrix(1,0,0,1,0,0)" fill="#202020" class="undefined-text-0" data-fill-palette-color="primary" id="text-0"></path></svg></g></svg></g></svg></g></svg></g><g><svg viewBox="0 0 124.34568760370627 109.6873525083612" height="109.6873525083612" width="124.34568760370627"><g><svg xmlns="http://www.w3.org/2000/svg" data-name="Layer 1" viewBox="5.990733623504639 9.999870300292969 68.01853942871094 60.00025939941406" x="0" y="0" height="109.6873525083612" width="124.34568760370627" class="icon-icon-0" data-fill-palette-color="accent" id="icon-0"><path d="M21.737 42H32.263a7.988 7.988 0 0 0 15.474 0H58.263A7.995 7.995 0 1 0 68 32.263V25.737A7.995 7.995 0 1 0 58.263 16H47.737a7.988 7.988 0 0 0-15.474 0H21.737a8 8 0 1 0 0 4H32.263a7.988 7.988 0 0 0 15.474 0H58.263A8.016 8.016 0 0 0 64 25.737v6.526A8.016 8.016 0 0 0 58.263 38H47.737a7.988 7.988 0 0 0-15.474 0H21.737A7.995 7.995 0 1 0 12 47.737v6.526A7.995 7.995 0 1 0 21.737 64H32.263a7.988 7.988 0 0 0 15.474 0H58.263a8 8 0 1 0 0-4H47.737a7.988 7.988 0 0 0-15.474 0H21.737A8.016 8.016 0 0 0 16 54.263V47.737A8.016 8.016 0 0 0 21.737 42ZM14 22a4 4 0 1 1 4-4A4.005 4.005 0 0 1 14 22Zm26 0a4 4 0 1 1 4-4A4.005 4.005 0 0 1 40 22Zm22-4a4 4 0 1 1 4 4A4.005 4.005 0 0 1 62 18Zm4 18a4 4 0 1 1-4 4A4.005 4.005 0 0 1 66 36ZM40 36a4 4 0 1 1-4 4A4.005 4.005 0 0 1 40 36ZM66 58a4 4 0 1 1-4 4A4.005 4.005 0 0 1 66 58ZM40 58a4 4 0 1 1-4 4A4.005 4.005 0 0 1 40 58ZM10 40a4 4 0 1 1 4 4A4.005 4.005 0 0 1 10 40Zm8 22a4 4 0 1 1-4-4A4.005 4.005 0 0 1 18 62Z" fill="#000000" data-fill-palette-color="accent"></path></svg></g></svg></g></svg></g></svg><rect width="395.5199999999999" height="81.4933198448481" fill="none" stroke="none" visibility="hidden"></rect></g></svg></g></svg>