<?xml version="1.0" encoding="iso-8859-1"?>
<!-- Generator: Adobe Illustrator 19.0.0, SVG Export Plug-In . SVG Version: 6.00 Build 0)  -->
<svg version="1.1" id="Layer_1" xmlns="http://www.w3.org/2000/svg" xmlns:xlink="http://www.w3.org/1999/xlink" x="0px" y="0px"
	 viewBox="0 0 488.9 488.9" style="enable-background:new 0 0 488.9 488.9;" xml:space="preserve">
<g>
	<path d="M421.3,231c0-11.4-9.4-20.8-20.8-20.8s-20.8,9.4-20.8,20.8c0,67.5-48.9,123.1-113.4,133.5v-47.6
		c39.1-9.6,68.7-45.4,68.7-88V89.5C335,40.6,295.5,0,245.5,0C196.6,0,156,39.5,156,89.5v140.4c0,41.9,29,77.6,68.7,87v47.8
		c-65.5-9.5-115.5-65.6-115.5-133.8c0-11.4-9.4-20.8-20.8-20.8s-20.8,9.4-20.8,20.8c0,90.4,69.1,165.4,157.1,174.8v41.6h-26
		c-11.4,0-20.8,9.4-20.8,20.8s9.4,20.8,20.8,20.8h93.6c11.4,0,20.8-9.4,20.8-20.8s-9.4-20.8-20.8-20.8h-26v-42.1
		C352.3,394,419.3,320,421.3,231z M196.5,228.9V89.5c0-27,21.8-48.9,48.9-48.9s48.9,21.8,48.9,48.9v139.4c0,27-21.8,48.9-48.9,48.9
		S196.5,255.9,196.5,228.9z"/>
</g>
<g>
</g>
<g>
</g>
<g>
</g>
<g>
</g>
<g>
</g>
<g>
</g>
<g>
</g>
<g>
</g>
<g>
</g>
<g>
</g>
<g>
</g>
<g>
</g>
<g>
</g>
<g>
</g>
<g>
</g>
</svg>
